<svg width="229" height="109" viewBox="0 0 229 109" fill="none" xmlns="http://www.w3.org/2000/svg">
<path d="M207.11 74.6159V72.4781H200.697V70.3403H204.972V63.9276H200.697V61.7898H204.972V55.3771L164.358 55.3777V61.7904H168.633V63.9282H164.358V70.3409H168.633V72.4787H162.22V74.6165H168.633V85.3042L155.808 85.3036V78.891H152.602V48.9651H150.464V29.1932C150.464 25.9524 153.101 23.3148 156.342 23.3148C159.433 23.3148 161.968 25.7155 162.198 28.7475C158.59 29.2784 155.808 32.3866 155.808 36.1403V37.2089H160.083C160.083 38.9766 161.522 40.4153 163.289 40.4153C165.057 40.4153 166.496 38.9766 166.496 37.2089H170.771V36.1403C170.771 32.372 167.965 29.252 164.335 28.7413C164.098 24.5313 160.61 21.177 156.342 21.177C151.922 21.177 148.327 24.7727 148.327 29.1932V48.9651H146.189V78.891H142.982V85.3036H140.845V87.4415H207.111V85.3036H200.698L200.697 74.6159H207.11ZM163.289 38.2771C162.699 38.2771 162.22 37.7981 162.22 37.2085H164.358C164.358 37.7981 163.879 38.2771 163.289 38.2771H163.289ZM168.525 35.0708H158.053C158.55 32.6352 160.708 30.7958 163.289 30.7958C165.87 30.7952 168.029 32.6344 168.525 35.0708ZM148.327 51.1018H150.465V78.8899L148.327 78.8905V51.1018ZM145.121 85.3029V81.0279H153.67V85.3029H145.121ZM198.559 72.4774H196.421V70.3396H198.559V72.4774ZM175.046 72.4774V70.3396H194.285V72.4774H175.046ZM198.559 63.9269H196.421V61.7891H198.559V63.9269ZM194.284 61.7897V63.9275L175.045 63.9269V61.7891L194.284 61.7897ZM166.496 57.5141H202.835V59.6519H166.496V57.5141ZM170.771 61.7897H172.909V63.9275H170.771V61.7897ZM166.496 68.2024V66.0646H202.835V68.2024H166.496ZM170.771 70.3396H172.909V72.4774H170.771V70.3396ZM175.047 85.3032V77.8218H194.286V85.3032H175.047ZM198.559 85.3032H196.422V75.684H172.909V85.3032H170.771L170.77 74.6155H198.559L198.559 85.3032Z" fill="#333333"/>
<path d="M18.3862 68.7312C17.6235 67.9754 16.5723 67.5007 15.4125 67.5007C13.0864 67.5007 11.2026 69.3845 11.2026 71.7043C11.2026 74.0304 13.0864 75.9142 15.4125 75.9142C17.7386 75.9142 19.6224 74.0304 19.6224 71.7043C19.6224 70.5447 19.1483 69.4939 18.3861 68.7311L18.3862 68.7312ZM15.4125 74.1331C14.0731 74.1331 12.9838 73.0501 12.9838 71.7044C12.9838 70.3651 14.0732 69.2757 15.4125 69.2757C16.7518 69.2757 17.8412 70.3651 17.8412 71.7044C17.8412 73.0507 16.7518 74.1331 15.4125 74.1331ZM36.6293 67.5007H24.0692C22.595 67.5007 21.4037 68.6926 21.3973 70.1662V73.2482C21.4037 74.7219 22.5956 75.9137 24.0692 75.9137H36.6293C38.1035 75.9137 39.2948 74.7218 39.3011 73.2482V70.1662C39.2948 68.6925 38.1029 67.5007 36.6293 67.5007ZM37.5199 73.2487C37.5199 73.7355 37.1224 74.133 36.6293 74.133H24.0692C23.5755 74.133 23.1786 73.7355 23.1786 73.2487V70.1668C23.1786 69.6731 23.576 69.2761 24.0692 69.2761H36.6293C37.123 69.2761 37.5199 69.6736 37.5199 70.1668V73.2487ZM41.9666 31.462H18.731C18.2373 31.462 17.8404 31.8594 17.8404 32.3462C17.8404 32.8399 18.2379 33.2369 18.731 33.2369H41.9666C42.4603 33.2369 42.8573 32.8394 42.8573 32.3462C42.8578 31.8594 42.4603 31.462 41.9666 31.462ZM48.2597 68.7307C47.497 67.9743 46.4462 67.5002 45.2865 67.5002C42.9604 67.5002 41.0765 69.384 41.0765 71.7038C41.0765 74.0299 42.9604 75.9137 45.2865 75.9137C47.6126 75.9137 49.4964 74.0299 49.4964 71.7038C49.4964 70.5441 49.0223 69.4933 48.2596 68.7306L48.2597 68.7307ZM45.2865 74.1326C43.9471 74.1326 42.8578 73.0496 42.8578 71.7039C42.8578 70.3645 43.9472 69.2752 45.2865 69.2752C46.6259 69.2752 47.7152 70.3646 47.7152 71.7039C47.7152 73.0501 46.6253 74.1326 45.2865 74.1326ZM41.9666 31.4609H18.731C18.2373 31.4609 17.8404 31.8584 17.8404 32.3452C17.8404 32.8388 18.2379 33.2358 18.731 33.2358H41.9666C42.4603 33.2358 42.8573 32.8383 42.8573 32.3452C42.8578 31.8584 42.4603 31.4609 41.9666 31.4609ZM48.2597 68.7296C47.497 67.9732 46.4462 67.4991 45.2865 67.4991C42.9604 67.4991 41.0765 69.3829 41.0765 71.7027C41.0765 74.0288 42.9604 75.9126 45.2865 75.9126C47.6126 75.9126 49.4964 74.0288 49.4964 71.7027C49.4964 70.543 49.0223 69.4923 48.2596 68.7295L48.2597 68.7296ZM45.2865 74.1315C43.9471 74.1315 42.8578 73.0485 42.8578 71.7028C42.8578 70.3634 43.9472 69.2741 45.2865 69.2741C46.6259 69.2741 47.7152 70.3635 47.7152 71.7028C47.7152 73.049 46.6253 74.1315 45.2865 74.1315ZM36.6293 67.4991H24.0692C22.595 67.4991 21.4037 68.691 21.3973 70.1646V73.2466C21.4037 74.7202 22.5956 75.9121 24.0692 75.9121H36.6293C38.1035 75.9121 39.2948 74.7202 39.3011 73.2466V70.1646C39.2948 68.6909 38.1029 67.4991 36.6293 67.4991ZM37.5199 73.2471C37.5199 73.7339 37.1224 74.1314 36.6293 74.1314H24.0692C23.5755 74.1314 23.1786 73.7339 23.1786 73.2471V70.1651C23.1786 69.6715 23.576 69.2745 24.0692 69.2745H36.6293C37.123 69.2745 37.5199 69.672 37.5199 70.1651V73.2471ZM15.4114 67.4991C13.0853 67.4991 11.2015 69.3829 11.2015 71.7027C11.2015 74.0288 13.0853 75.9126 15.4114 75.9126C17.7376 75.9126 19.6214 74.0288 19.6214 71.7027C19.6214 70.543 19.1472 69.4917 18.3845 68.7295C17.6224 67.9736 16.5711 67.499 15.4113 67.499L15.4114 67.4991ZM15.4114 74.1315C14.0721 74.1315 12.9827 73.0485 12.9827 71.7028C12.9827 70.3634 14.0721 69.2741 15.4114 69.2741C16.7508 69.2741 17.8401 70.3635 17.8401 71.7028C17.8401 73.049 16.7508 74.1315 15.4114 74.1315ZM56.9614 43.194C56.0771 43.194 55.3657 43.9118 55.3657 44.7961V52.1462C55.3657 53.0304 56.0771 53.7419 56.9614 53.7482H59.0953C59.9795 53.7419 60.6973 53.0305 60.6973 52.1462V44.7961C60.6973 43.9118 59.9795 43.194 59.0953 43.194H58.9161V41.3551C58.9161 40.4069 58.147 39.6379 57.1988 39.6379H53.0528L53.0522 31.2813C53.0459 28.8272 51.0595 26.8346 48.6055 26.8346H12.0918C9.63769 26.8346 7.65092 28.8273 7.64456 31.2819V39.6379H3.49849C2.55026 39.6379 1.78126 40.4069 1.78126 41.3551V43.194H1.60208C0.717798 43.194 0 43.9118 0 44.7961V52.1462C0 53.0304 0.717784 53.7419 1.60208 53.7482H3.73594C4.62022 53.7419 5.33166 53.0305 5.33166 52.1462L5.33113 44.7961C5.33113 43.9118 4.61969 43.194 3.73541 43.194H3.55623V41.4191H7.64465V75.0236C7.651 77.1833 9.19545 79.0285 11.3229 79.4001V84.8664C11.3229 85.1677 11.3742 85.469 11.4768 85.7507H0.890832C0.397163 85.7507 0.000214727 86.1545 0.000214727 86.6413C0.000214727 87.135 0.397691 87.5319 0.890832 87.5319H59.8066C60.3003 87.5319 60.6972 87.1344 60.6972 86.6413C60.6972 86.1545 60.2998 85.7507 59.8066 85.7507H49.2207C49.3232 85.469 49.3745 85.1677 49.3745 84.8664V79.4001C51.502 79.0285 53.0464 77.1828 53.0528 75.0236L53.0523 41.4191H57.1407V43.194H56.9614ZM3.55683 51.967H1.78195V44.9694H3.55683V51.967ZM9.42703 37.8554H29.4585V56.8233H9.42703V37.8554ZM19.1478 84.8652C19.1478 85.352 18.7503 85.7495 18.2572 85.7495H13.9896C13.4959 85.7495 13.099 85.352 13.099 84.8652V79.4697H19.1483L19.1478 84.8652ZM20.7693 85.7495C20.8719 85.4678 20.9232 85.1665 20.9232 84.8652V79.4697H39.776V84.8652C39.776 85.1665 39.8273 85.4677 39.9298 85.7495H20.7693ZM47.6002 84.8652C47.6002 85.352 47.2027 85.7495 46.7095 85.7495H42.442C41.9483 85.7495 41.5514 85.352 41.5514 84.8652V79.4697H47.6007L47.6002 84.8652ZM51.2721 75.0224C51.2721 76.4966 50.0802 77.6879 48.6066 77.6948L12.0929 77.6943C10.6193 77.6879 9.42743 76.496 9.42743 75.0224V64.827C10.1965 65.4036 11.1321 65.7176 12.0929 65.7176H48.6066C49.5681 65.7176 50.5037 65.4036 51.2721 64.827V75.0224ZM51.2721 61.2707C51.2721 62.7444 50.0802 63.9362 48.6066 63.9362L12.0929 63.9367C10.6187 63.9367 9.42743 62.7448 9.42743 61.2713V58.6058H51.2724L51.2721 61.2707ZM51.2721 56.8235H31.2407V37.8555H51.2721V56.8235ZM51.2721 36.0803H9.42716V31.2804C9.42716 29.8067 10.6191 28.6149 12.0927 28.608H48.6063C50.0806 28.6143 51.2718 29.8062 51.2718 31.2804L51.2721 36.0803ZM58.9172 44.9686V51.9662H57.1423V44.9686H58.9172ZM45.2873 67.4992C42.9612 67.4992 41.0774 69.383 41.0774 71.7028C41.0774 74.0289 42.9612 75.9127 45.2873 75.9127C47.6134 75.9127 49.4972 74.0289 49.4972 71.7028C49.4972 70.5431 49.0231 69.4918 48.2604 68.7296C47.4977 67.9738 46.447 67.4991 45.2872 67.4991L45.2873 67.4992ZM45.2873 74.1316C43.9479 74.1316 42.8586 73.0486 42.8586 71.7029C42.8586 70.3636 43.948 69.2742 45.2873 69.2742C46.6267 69.2742 47.716 70.3636 47.716 71.7029C47.716 73.0492 46.6261 74.1316 45.2873 74.1316ZM41.9674 31.4599H18.7318C18.2382 31.4599 17.8412 31.8574 17.8412 32.3442C17.8412 32.8379 18.2387 33.2348 18.7318 33.2348H41.9674C42.4611 33.2348 42.8581 32.8374 42.8581 32.3442C42.8586 31.8574 42.4611 31.4599 41.9674 31.4599ZM36.6301 67.4987H24.07C22.5958 67.4987 21.4045 68.6906 21.3981 70.1642V73.2462C21.4045 74.7198 22.5964 75.9117 24.07 75.9117H36.6301C38.1043 75.9117 39.2956 74.7198 39.3019 73.2462V70.1642C39.2956 68.6905 38.1037 67.4987 36.6301 67.4987ZM37.5207 73.2467C37.5207 73.7335 37.1232 74.131 36.6301 74.131H24.07C23.5763 74.131 23.1794 73.7335 23.1794 73.2467V70.1647C23.1794 69.6711 23.5768 69.2741 24.07 69.2741H36.6301C37.1238 69.2741 37.5207 69.6716 37.5207 70.1647V73.2467ZM15.4122 67.4987C13.0861 67.4987 11.2023 69.3825 11.2023 71.7023C11.2023 74.0284 13.0861 75.9122 15.4122 75.9122C17.7384 75.9122 19.6222 74.0284 19.6222 71.7023C19.6222 70.5426 19.1481 69.4913 18.3853 68.7291C17.6232 67.9732 16.5719 67.4986 15.4122 67.4986L15.4122 67.4987ZM15.4122 74.1311C14.0729 74.1311 12.9835 73.0481 12.9835 71.7024C12.9835 70.363 14.0729 69.2737 15.4122 69.2737C16.7516 69.2737 17.8409 70.3631 17.8409 71.7024C17.8409 73.0486 16.7516 74.1311 15.4122 74.1311ZM18.386 68.7292C17.6233 67.9734 16.572 67.4987 15.4122 67.4987C13.0861 67.4987 11.2023 69.3825 11.2023 71.7023C11.2023 74.0284 13.0861 75.9122 15.4122 75.9122C17.7384 75.9122 19.6222 74.0284 19.6222 71.7023C19.6222 70.5426 19.1481 69.4918 18.3859 68.7291L18.386 68.7292ZM15.4122 74.1311C14.0729 74.1311 12.9835 73.0481 12.9835 71.7024C12.9835 70.363 14.0729 69.2737 15.4122 69.2737C16.7516 69.2737 17.8409 70.3631 17.8409 71.7024C17.8409 73.0486 16.7516 74.1311 15.4122 74.1311ZM36.629 67.4987H24.0689C22.5947 67.4987 21.4034 68.6906 21.397 70.1642V73.2462C21.4034 74.7198 22.5953 75.9117 24.0689 75.9117H36.629C38.1032 75.9117 39.2945 74.7198 39.3009 73.2462V70.1642C39.2945 68.6905 38.1026 67.4987 36.629 67.4987ZM37.5196 73.2467C37.5196 73.7335 37.1222 74.131 36.629 74.131H24.0689C23.5752 74.131 23.1783 73.7335 23.1783 73.2467V70.1647C23.1783 69.6711 23.5758 69.2741 24.0689 69.2741H36.629C37.1227 69.2741 37.5196 69.6716 37.5196 70.1647V73.2467ZM48.2594 68.7291C47.4967 67.9727 46.446 67.4986 45.2862 67.4986C42.9601 67.4986 41.0763 69.3824 41.0763 71.7022C41.0763 74.0283 42.9601 75.9121 45.2862 75.9121C47.6123 75.9121 49.4962 74.0283 49.4962 71.7022C49.4962 70.5425 49.022 69.4917 48.2593 68.729L48.2594 68.7291ZM45.2862 74.131C43.9469 74.131 42.8575 73.0479 42.8575 71.7023C42.8575 70.3629 43.9469 69.2736 45.2862 69.2736C46.6256 69.2736 47.7149 70.3629 47.7149 71.7023C47.7149 73.0485 46.625 74.131 45.2862 74.131ZM41.9664 31.4593H18.7307C18.2371 31.4593 17.8401 31.8567 17.8401 32.3435C17.8401 32.8372 18.2376 33.2342 18.7307 33.2342H41.9664C42.46 33.2342 42.857 32.8367 42.857 32.3435C42.8575 31.8567 42.46 31.4593 41.9664 31.4593ZM36.629 67.498H24.0689C22.5947 67.498 21.4034 68.6899 21.397 70.1635V73.2455C21.4034 74.7192 22.5953 75.911 24.0689 75.911H36.629C38.1032 75.911 39.2945 74.7191 39.3009 73.2455V70.1635C39.2945 68.6898 38.1026 67.498 36.629 67.498ZM37.5196 73.246C37.5196 73.7328 37.1222 74.1303 36.629 74.1303H24.0689C23.5752 74.1303 23.1783 73.7328 23.1783 73.246V70.164C23.1783 69.6704 23.5758 69.2734 24.0689 69.2734H36.629C37.1227 69.2734 37.5196 69.6709 37.5196 70.164V73.246ZM18.3853 68.7284C17.6226 67.9726 16.5713 67.4979 15.4116 67.4979C13.0854 67.4979 11.2016 69.3817 11.2016 71.7015C11.2016 74.0276 13.0854 75.9114 15.4116 75.9114C17.7377 75.9114 19.6215 74.0276 19.6215 71.7015C19.6215 70.5418 19.1474 69.491 18.3852 68.7283L18.3853 68.7284ZM15.4116 74.1303C14.0722 74.1303 12.9829 73.0473 12.9829 71.7016C12.9829 70.3622 14.0722 69.2729 15.4116 69.2729C16.7509 69.2729 17.8403 70.3622 17.8403 71.7016C17.8403 73.0478 16.7509 74.1303 15.4116 74.1303ZM48.2597 68.7284C47.497 67.972 46.4462 67.4979 45.2865 67.4979C42.9604 67.4979 41.0765 69.3817 41.0765 71.7015C41.0765 74.0276 42.9604 75.9114 45.2865 75.9114C47.6126 75.9114 49.4964 74.0276 49.4964 71.7015C49.4964 70.5418 49.0223 69.491 48.2596 68.7283L48.2597 68.7284ZM45.2865 74.1303C43.9471 74.1303 42.8578 73.0473 42.8578 71.7016C42.8578 70.3622 43.9472 69.2729 45.2865 69.2729C46.6259 69.2729 47.7152 70.3622 47.7152 71.7016C47.7152 73.0478 46.6253 74.1303 45.2865 74.1303ZM41.9666 31.4586H18.731C18.2373 31.4586 17.8404 31.8561 17.8404 32.3429C17.8404 32.8365 18.2379 33.2335 18.731 33.2335H41.9666C42.4603 33.2335 42.8573 32.836 42.8573 32.3429C42.8578 31.8561 42.4603 31.4586 41.9666 31.4586Z" fill="#333333"/>
<line x1="83" y1="86.532" x2="122.613" y2="86.532" stroke="#333333" stroke-width="2"/>
<path d="M112.631 27H92.6376C90.2912 27 88.3816 28.9091 88.3816 31.256V73.9233C88.3816 76.2697 90.2907 78.1793 92.6376 78.1793H112.632C114.978 78.1793 116.888 76.2702 116.888 73.9233L116.887 31.256C116.887 28.9091 114.978 27 112.631 27H112.631ZM115.432 73.9229C115.432 75.4676 114.175 76.7239 112.631 76.7239H92.6376C91.0929 76.7239 89.8366 75.4671 89.8366 73.9229V68.5321H115.432L115.432 73.9229ZM115.432 67.0776H89.8361V34.024H115.432V67.0776ZM115.432 32.569H89.8361V31.2555C89.8361 29.7108 91.0929 28.4545 92.6371 28.4545H112.631C114.176 28.4545 115.432 29.7113 115.432 31.2555L115.432 32.569Z" fill="#333333"/>
<path d="M102.633 75.7945C104.36 75.7945 105.764 74.3904 105.764 72.6642C105.764 70.9379 104.36 69.5329 102.633 69.5329C100.907 69.5329 99.5031 70.938 99.5031 72.6642C99.5031 74.3899 100.907 75.7945 102.633 75.7945ZM102.633 70.9879C103.557 70.9879 104.309 71.7397 104.309 72.6643C104.309 73.5883 103.558 74.3396 102.633 74.3396C101.709 74.3396 100.958 73.5879 100.958 72.6643C100.958 71.7407 101.709 70.9879 102.633 70.9879Z" fill="#333333"/>
<path d="M103.336 29.7711H98.9935C98.5917 29.7711 98.2662 30.0971 98.2662 30.4984C98.2662 30.9002 98.5922 31.2257 98.9935 31.2257H103.336C103.738 31.2257 104.064 30.8997 104.064 30.4984C104.064 30.0971 103.738 29.7711 103.336 29.7711Z" fill="#333333"/>
<path d="M106.273 30.4987C106.273 31.2423 105.158 31.2423 105.158 30.4987C105.158 29.7556 106.273 29.7556 106.273 30.4987Z" fill="#333333"/>
</svg>
