<svg width="208" height="67" viewBox="0 0 208 67" fill="none" xmlns="http://www.w3.org/2000/svg">
<path d="M18.3862 47.7312C17.6235 46.9754 16.5723 46.5007 15.4125 46.5007C13.0864 46.5007 11.2026 48.3845 11.2026 50.7043C11.2026 53.0304 13.0864 54.9142 15.4125 54.9142C17.7386 54.9142 19.6224 53.0304 19.6224 50.7043C19.6224 49.5447 19.1483 48.4939 18.3861 47.7311L18.3862 47.7312ZM15.4125 53.1331C14.0731 53.1331 12.9838 52.0501 12.9838 50.7044C12.9838 49.3651 14.0732 48.2757 15.4125 48.2757C16.7518 48.2757 17.8412 49.3651 17.8412 50.7044C17.8412 52.0507 16.7518 53.1331 15.4125 53.1331ZM36.6293 46.5007H24.0692C22.595 46.5007 21.4037 47.6926 21.3973 49.1662V52.2482C21.4037 53.7219 22.5956 54.9137 24.0692 54.9137H36.6293C38.1035 54.9137 39.2948 53.7218 39.3011 52.2482V49.1662C39.2948 47.6925 38.1029 46.5007 36.6293 46.5007ZM37.5199 52.2487C37.5199 52.7355 37.1224 53.133 36.6293 53.133H24.0692C23.5755 53.133 23.1786 52.7355 23.1786 52.2487V49.1668C23.1786 48.6731 23.576 48.2761 24.0692 48.2761H36.6293C37.123 48.2761 37.5199 48.6736 37.5199 49.1668V52.2487ZM41.9666 10.462H18.731C18.2373 10.462 17.8404 10.8594 17.8404 11.3462C17.8404 11.8399 18.2379 12.2369 18.731 12.2369H41.9666C42.4603 12.2369 42.8572 11.8394 42.8572 11.3462C42.8578 10.8594 42.4603 10.462 41.9666 10.462V10.462ZM48.2597 47.7307C47.497 46.9743 46.4462 46.5002 45.2865 46.5002C42.9604 46.5002 41.0766 48.384 41.0766 50.7038C41.0766 53.0299 42.9604 54.9137 45.2865 54.9137C47.6126 54.9137 49.4964 53.0299 49.4964 50.7038C49.4964 49.5441 49.0223 48.4933 48.2596 47.7306L48.2597 47.7307ZM45.2865 53.1326C43.9471 53.1326 42.8578 52.0496 42.8578 50.7039C42.8578 49.3645 43.9472 48.2752 45.2865 48.2752C46.6259 48.2752 47.7152 49.3646 47.7152 50.7039C47.7152 52.0501 46.6253 53.1326 45.2865 53.1326ZM41.9666 10.4609H18.731C18.2373 10.4609 17.8404 10.8584 17.8404 11.3452C17.8404 11.8388 18.2379 12.2358 18.731 12.2358H41.9666C42.4603 12.2358 42.8572 11.8383 42.8572 11.3452C42.8578 10.8584 42.4603 10.4609 41.9666 10.4609ZM48.2597 47.7296C47.497 46.9732 46.4462 46.4991 45.2865 46.4991C42.9604 46.4991 41.0766 48.3829 41.0766 50.7027C41.0766 53.0288 42.9604 54.9126 45.2865 54.9126C47.6126 54.9126 49.4964 53.0288 49.4964 50.7027C49.4964 49.543 49.0223 48.4923 48.2596 47.7295L48.2597 47.7296ZM45.2865 53.1315C43.9471 53.1315 42.8578 52.0485 42.8578 50.7028C42.8578 49.3634 43.9472 48.2741 45.2865 48.2741C46.6259 48.2741 47.7152 49.3635 47.7152 50.7028C47.7152 52.049 46.6253 53.1315 45.2865 53.1315ZM36.6293 46.4991H24.0692C22.595 46.4991 21.4037 47.691 21.3973 49.1646V52.2466C21.4037 53.7202 22.5956 54.9121 24.0692 54.9121H36.6293C38.1035 54.9121 39.2948 53.7202 39.3011 52.2466V49.1646C39.2948 47.6909 38.1029 46.4991 36.6293 46.4991ZM37.5199 52.2471C37.5199 52.7339 37.1224 53.1314 36.6293 53.1314H24.0692C23.5755 53.1314 23.1786 52.7339 23.1786 52.2471V49.1651C23.1786 48.6715 23.576 48.2745 24.0692 48.2745H36.6293C37.123 48.2745 37.5199 48.672 37.5199 49.1651V52.2471ZM15.4114 46.4991C13.0853 46.4991 11.2015 48.3829 11.2015 50.7027C11.2015 53.0288 13.0853 54.9126 15.4114 54.9126C17.7376 54.9126 19.6214 53.0288 19.6214 50.7027C19.6214 49.543 19.1472 48.4917 18.3845 47.7295C17.6224 46.9736 16.5711 46.499 15.4113 46.499L15.4114 46.4991ZM15.4114 53.1315C14.0721 53.1315 12.9827 52.0485 12.9827 50.7028C12.9827 49.3634 14.0721 48.2741 15.4114 48.2741C16.7508 48.2741 17.8401 49.3635 17.8401 50.7028C17.8401 52.049 16.7508 53.1315 15.4114 53.1315ZM56.9614 22.194C56.0771 22.194 55.3657 22.9118 55.3657 23.7961V31.1462C55.3657 32.0304 56.0771 32.7419 56.9614 32.7482H59.0953C59.9795 32.7419 60.6973 32.0305 60.6973 31.1462V23.7961C60.6973 22.9118 59.9796 22.194 59.0953 22.194H58.9161V20.3551C58.9161 19.4069 58.147 18.6379 57.1988 18.6379H53.0528L53.0522 10.2813C53.0459 7.82719 51.0595 5.83459 48.6055 5.83459H12.0918C9.63769 5.83459 7.65092 7.82732 7.64456 10.2819V18.6379H3.49849C2.55026 18.6379 1.78126 19.4069 1.78126 20.3551V22.194H1.60208C0.717798 22.194 0 22.9118 0 23.7961V31.1462C0 32.0304 0.717784 32.7419 1.60208 32.7482H3.73594C4.62022 32.7419 5.33166 32.0305 5.33166 31.1462L5.33113 23.7961C5.33113 22.9118 4.61969 22.194 3.73541 22.194H3.55623V20.4191H7.64465V54.0236C7.651 56.1833 9.19545 58.0285 11.3229 58.4001V63.8664C11.3229 64.1677 11.3742 64.469 11.4768 64.7507H0.890832C0.397163 64.7507 0.000214727 65.1545 0.000214727 65.6413C0.000214727 66.135 0.397691 66.5319 0.890832 66.5319H59.8066C60.3003 66.5319 60.6972 66.1344 60.6972 65.6413C60.6972 65.1545 60.2998 64.7507 59.8066 64.7507H49.2207C49.3232 64.469 49.3745 64.1677 49.3745 63.8664V58.4001C51.502 58.0285 53.0464 56.1828 53.0528 54.0236L53.0523 20.4191H57.1407V22.194H56.9614ZM3.55683 30.967H1.78195V23.9694H3.55683V30.967ZM9.42703 16.8554H29.4585V35.8233H9.42703V16.8554ZM19.1478 63.8652C19.1478 64.352 18.7503 64.7495 18.2572 64.7495H13.9896C13.4959 64.7495 13.099 64.352 13.099 63.8652V58.4697H19.1483L19.1478 63.8652ZM20.7693 64.7495C20.8719 64.4678 20.9232 64.1665 20.9232 63.8652V58.4697H39.776V63.8652C39.776 64.1665 39.8273 64.4677 39.9298 64.7495H20.7693ZM47.6002 63.8652C47.6002 64.352 47.2027 64.7495 46.7096 64.7495H42.442C41.9483 64.7495 41.5514 64.352 41.5514 63.8652V58.4697H47.6007L47.6002 63.8652ZM51.2721 54.0224C51.2721 55.4966 50.0802 56.6879 48.6066 56.6948L12.0929 56.6943C10.6193 56.6879 9.42743 55.496 9.42743 54.0224V43.827C10.1965 44.4036 11.1321 44.7176 12.0929 44.7176H48.6066C49.5681 44.7176 50.5037 44.4036 51.2721 43.827V54.0224ZM51.2721 40.2707C51.2721 41.7444 50.0802 42.9362 48.6066 42.9362L12.0929 42.9367C10.6187 42.9367 9.42743 41.7448 9.42743 40.2713V37.6058H51.2724L51.2721 40.2707ZM51.2721 35.8235H31.2407V16.8555H51.2721V35.8235ZM51.2721 15.0803H9.42716V10.2804C9.42716 8.8067 10.6191 7.61488 12.0927 7.60798H48.6063C50.0806 7.61432 51.2718 8.80623 51.2718 10.2804L51.2721 15.0803ZM58.9172 23.9686V30.9662H57.1423V23.9686H58.9172ZM45.2873 46.4992C42.9612 46.4992 41.0774 48.383 41.0774 50.7028C41.0774 53.0289 42.9612 54.9127 45.2873 54.9127C47.6134 54.9127 49.4972 53.0289 49.4972 50.7028C49.4972 49.5431 49.0231 48.4918 48.2604 47.7296C47.4977 46.9738 46.447 46.4991 45.2872 46.4991L45.2873 46.4992ZM45.2873 53.1316C43.9479 53.1316 42.8586 52.0486 42.8586 50.7029C42.8586 49.3636 43.948 48.2742 45.2873 48.2742C46.6267 48.2742 47.716 49.3636 47.716 50.7029C47.716 52.0492 46.6261 53.1316 45.2873 53.1316ZM41.9674 10.4599H18.7318C18.2382 10.4599 17.8412 10.8574 17.8412 11.3442C17.8412 11.8379 18.2387 12.2348 18.7318 12.2348H41.9674C42.4611 12.2348 42.8581 11.8374 42.8581 11.3442C42.8586 10.8574 42.4611 10.4599 41.9674 10.4599V10.4599ZM36.6301 46.4987H24.07C22.5958 46.4987 21.4045 47.6906 21.3981 49.1642V52.2462C21.4045 53.7198 22.5964 54.9117 24.07 54.9117H36.6301C38.1043 54.9117 39.2956 53.7198 39.3019 52.2462V49.1642C39.2956 47.6905 38.1037 46.4987 36.6301 46.4987ZM37.5207 52.2467C37.5207 52.7335 37.1232 53.131 36.6301 53.131H24.07C23.5763 53.131 23.1794 52.7335 23.1794 52.2467V49.1647C23.1794 48.6711 23.5768 48.2741 24.07 48.2741H36.6301C37.1238 48.2741 37.5207 48.6716 37.5207 49.1647V52.2467ZM15.4122 46.4987C13.0861 46.4987 11.2023 48.3825 11.2023 50.7023C11.2023 53.0284 13.0861 54.9122 15.4122 54.9122C17.7384 54.9122 19.6222 53.0284 19.6222 50.7023C19.6222 49.5426 19.1481 48.4913 18.3853 47.7291C17.6232 46.9732 16.5719 46.4986 15.4122 46.4986L15.4122 46.4987ZM15.4122 53.1311C14.0729 53.1311 12.9835 52.0481 12.9835 50.7024C12.9835 49.363 14.0729 48.2737 15.4122 48.2737C16.7516 48.2737 17.8409 49.3631 17.8409 50.7024C17.8409 52.0486 16.7516 53.1311 15.4122 53.1311ZM18.386 47.7292C17.6233 46.9734 16.572 46.4987 15.4122 46.4987C13.0861 46.4987 11.2023 48.3825 11.2023 50.7023C11.2023 53.0284 13.0861 54.9122 15.4122 54.9122C17.7384 54.9122 19.6222 53.0284 19.6222 50.7023C19.6222 49.5426 19.1481 48.4918 18.3859 47.7291L18.386 47.7292ZM15.4122 53.1311C14.0729 53.1311 12.9835 52.0481 12.9835 50.7024C12.9835 49.363 14.0729 48.2737 15.4122 48.2737C16.7516 48.2737 17.8409 49.3631 17.8409 50.7024C17.8409 52.0486 16.7516 53.1311 15.4122 53.1311ZM36.629 46.4987H24.0689C22.5947 46.4987 21.4034 47.6906 21.397 49.1642V52.2462C21.4034 53.7198 22.5953 54.9117 24.0689 54.9117H36.629C38.1032 54.9117 39.2945 53.7198 39.3009 52.2462V49.1642C39.2945 47.6905 38.1026 46.4987 36.629 46.4987ZM37.5196 52.2467C37.5196 52.7335 37.1222 53.131 36.629 53.131H24.0689C23.5752 53.131 23.1783 52.7335 23.1783 52.2467V49.1647C23.1783 48.6711 23.5758 48.2741 24.0689 48.2741H36.629C37.1227 48.2741 37.5196 48.6716 37.5196 49.1647V52.2467ZM48.2594 47.7291C47.4967 46.9727 46.446 46.4986 45.2862 46.4986C42.9601 46.4986 41.0763 48.3824 41.0763 50.7022C41.0763 53.0283 42.9601 54.9121 45.2862 54.9121C47.6123 54.9121 49.4962 53.0283 49.4962 50.7022C49.4962 49.5425 49.022 48.4917 48.2593 47.729L48.2594 47.7291ZM45.2862 53.131C43.9469 53.131 42.8575 52.0479 42.8575 50.7023C42.8575 49.3629 43.9469 48.2736 45.2862 48.2736C46.6256 48.2736 47.7149 49.3629 47.7149 50.7023C47.7149 52.0485 46.625 53.131 45.2862 53.131ZM41.9664 10.4593H18.7307C18.2371 10.4593 17.8401 10.8567 17.8401 11.3435C17.8401 11.8372 18.2376 12.2342 18.7307 12.2342H41.9664C42.46 12.2342 42.857 11.8367 42.857 11.3435C42.8575 10.8567 42.46 10.4593 41.9664 10.4593V10.4593ZM36.629 46.498H24.0689C22.5947 46.498 21.4034 47.6899 21.397 49.1635V52.2455C21.4034 53.7192 22.5953 54.911 24.0689 54.911H36.629C38.1032 54.911 39.2945 53.7191 39.3009 52.2455V49.1635C39.2945 47.6898 38.1026 46.498 36.629 46.498ZM37.5196 52.246C37.5196 52.7328 37.1222 53.1303 36.629 53.1303H24.0689C23.5752 53.1303 23.1783 52.7328 23.1783 52.246V49.164C23.1783 48.6704 23.5758 48.2734 24.0689 48.2734H36.629C37.1227 48.2734 37.5196 48.6709 37.5196 49.164V52.246ZM18.3853 47.7284C17.6226 46.9726 16.5713 46.4979 15.4116 46.4979C13.0854 46.4979 11.2016 48.3817 11.2016 50.7015C11.2016 53.0276 13.0854 54.9114 15.4116 54.9114C17.7377 54.9114 19.6215 53.0276 19.6215 50.7015C19.6215 49.5418 19.1474 48.491 18.3852 47.7283L18.3853 47.7284ZM15.4116 53.1303C14.0722 53.1303 12.9829 52.0473 12.9829 50.7016C12.9829 49.3622 14.0722 48.2729 15.4116 48.2729C16.7509 48.2729 17.8403 49.3622 17.8403 50.7016C17.8403 52.0478 16.7509 53.1303 15.4116 53.1303ZM48.2597 47.7284C47.497 46.972 46.4462 46.4979 45.2865 46.4979C42.9604 46.4979 41.0766 48.3817 41.0766 50.7015C41.0766 53.0276 42.9604 54.9114 45.2865 54.9114C47.6126 54.9114 49.4964 53.0276 49.4964 50.7015C49.4964 49.5418 49.0223 48.491 48.2596 47.7283L48.2597 47.7284ZM45.2865 53.1303C43.9471 53.1303 42.8578 52.0473 42.8578 50.7016C42.8578 49.3622 43.9472 48.2729 45.2865 48.2729C46.6259 48.2729 47.7152 49.3622 47.7152 50.7016C47.7152 52.0478 46.6253 53.1303 45.2865 53.1303ZM41.9666 10.4586H18.731C18.2373 10.4586 17.8404 10.8561 17.8404 11.3429C17.8404 11.8365 18.2379 12.2335 18.731 12.2335H41.9666C42.4603 12.2335 42.8572 11.836 42.8572 11.3429C42.8578 10.8561 42.4603 10.4586 41.9666 10.4586Z" fill="#333333"/>
<line x1="83" y1="65.5319" x2="122.613" y2="65.5319" stroke="#333333" stroke-width="2"/>
<path d="M112.631 6H92.6376C90.2912 6 88.3816 7.90909 88.3816 10.256V52.9233C88.3816 55.2697 90.2907 57.1793 92.6376 57.1793H112.632C114.978 57.1793 116.888 55.2702 116.888 52.9233L116.887 10.256C116.887 7.90909 114.978 6 112.631 6H112.631ZM115.432 52.9229C115.432 54.4676 114.175 55.7239 112.631 55.7239H92.6376C91.0929 55.7239 89.8366 54.4671 89.8366 52.9229V47.5321H115.432L115.432 52.9229ZM115.432 46.0776H89.8361V13.024H115.432V46.0776ZM115.432 11.569H89.8361V10.2555C89.8361 8.71082 91.0929 7.45452 92.6371 7.45452H112.631C114.176 7.45452 115.432 8.71131 115.432 10.2555L115.432 11.569Z" fill="#333333"/>
<path d="M102.633 54.7945C104.36 54.7945 105.764 53.3903 105.764 51.6641C105.764 49.9379 104.36 48.5329 102.633 48.5329C100.907 48.5329 99.5031 49.938 99.5031 51.6641C99.5031 53.3899 100.907 54.7945 102.633 54.7945ZM102.633 49.9879C103.557 49.9879 104.309 50.7396 104.309 51.6642C104.309 52.5883 103.558 53.3396 102.633 53.3396C101.709 53.3396 100.958 52.5879 100.958 51.6642C100.958 50.7406 101.709 49.9879 102.633 49.9879Z" fill="#333333"/>
<path d="M103.336 8.77118H98.9935C98.5917 8.77118 98.2662 9.09712 98.2662 9.49844C98.2662 9.90023 98.5922 10.2257 98.9935 10.2257H103.336C103.738 10.2257 104.064 9.89976 104.064 9.49844C104.064 9.09712 103.738 8.77118 103.336 8.77118Z" fill="#333333"/>
<path d="M106.273 9.49867C106.273 10.2423 105.158 10.2423 105.158 9.49867C105.158 8.75557 106.273 8.75557 106.273 9.49867Z" fill="#333333"/>
<path d="M207.11 53.6159V51.4781H200.697V49.3403H204.972V42.9276H200.697V40.7898H204.972V34.3771L164.358 34.3777V40.7904H168.633V42.9282H164.358V49.3409H168.633V51.4787H162.22V53.6165H168.633V64.3042L155.808 64.3037V57.891H152.602V27.9651H150.464V8.19323C150.464 4.95236 153.101 2.31481 156.342 2.31481C159.433 2.31481 161.968 4.71549 162.198 7.7475C158.59 8.27842 155.808 11.3866 155.808 15.1403V16.2089H160.083C160.083 17.9766 161.522 19.4153 163.289 19.4153C165.057 19.4153 166.496 17.9766 166.496 16.2089H170.771V15.1403C170.771 11.372 167.965 8.25202 164.335 7.74129C164.098 3.53125 160.61 0.177002 156.342 0.177002C151.922 0.177002 148.327 3.77275 148.327 8.19323V27.9651H146.189V57.891H142.982V64.3037H140.845V66.4415H207.111V64.3037H200.698L200.697 53.6159H207.11ZM163.289 17.2771C162.699 17.2771 162.22 16.7981 162.22 16.2085H164.358C164.358 16.7981 163.879 17.2771 163.289 17.2771H163.289ZM168.525 14.0708H158.053C158.55 11.6352 160.708 9.79575 163.289 9.79575C165.87 9.79519 168.029 11.6344 168.525 14.0708ZM148.327 30.1018H150.465V57.8899L148.327 57.8905V30.1018ZM145.121 64.3029V60.0279H153.67V64.3029H145.121ZM198.559 51.4774H196.421V49.3396H198.559V51.4774ZM175.046 51.4774V49.3396H194.285V51.4774H175.046ZM198.559 42.9269H196.421V40.7891H198.559V42.9269ZM194.284 40.7897V42.9275L175.045 42.9269V40.7891L194.284 40.7897ZM166.496 36.5141H202.835V38.6519H166.496V36.5141ZM170.771 40.7897H172.909V42.9275H170.771V40.7897ZM166.496 47.2024V45.0646H202.835V47.2024H166.496ZM170.771 49.3396H172.909V51.4774H170.771V49.3396ZM175.047 64.3032V56.8218H194.286V64.3032H175.047ZM198.559 64.3032H196.422V54.684H172.909V64.3032H170.771L170.77 53.6155H198.559L198.559 64.3032Z" fill="#333333"/>
</svg>
